<svg width="762" height="614" viewBox="0 0 762 614" fill="none" xmlns="http://www.w3.org/2000/svg">
<path d="M456 6H606" stroke="black" stroke-width="12" stroke-linecap="round"/>
<path d="M306 158H456" stroke="black" stroke-width="12" stroke-linecap="round"/>
<path d="M156 7H306" stroke="black" stroke-width="12" stroke-linecap="round"/>
<path d="M606 6V81" stroke="black" stroke-width="12" stroke-linecap="round"/>
<path d="M531 81H606" stroke="black" stroke-width="12" stroke-linecap="round"/>
<path d="M531 81V156" stroke="black" stroke-width="12" stroke-linecap="round"/>
<path d="M531 156H606" stroke="black" stroke-width="12" stroke-linecap="round"/>
<path d="M456 7V157" stroke="black" stroke-width="12" stroke-linecap="round"/>
<path d="M306 8V158" stroke="black" stroke-width="12" stroke-linecap="round"/>
<path d="M156 8V83" stroke="black" stroke-width="12" stroke-linecap="round"/>
<path d="M231 83H156" stroke="black" stroke-width="12" stroke-linecap="round"/>
<path d="M231 83V158" stroke="black" stroke-width="12" stroke-linecap="round"/>
<path d="M231 158H156" stroke="black" stroke-width="12" stroke-linecap="round"/>
<path d="M606 156V231" stroke="black" stroke-width="12" stroke-linecap="round"/>
<path d="M606 231H756" stroke="black" stroke-width="12" stroke-linecap="round"/>
<path d="M756 381V231" stroke="black" stroke-width="12" stroke-linecap="round"/>
<path d="M681 381H756" stroke="black" stroke-width="12" stroke-linecap="round"/>
<path d="M681 381V307" stroke="black" stroke-width="12" stroke-linecap="round"/>
<path d="M606 306H681" stroke="black" stroke-width="12" stroke-linecap="round"/>
<path d="M606 381V307" stroke="black" stroke-width="12" stroke-linecap="round"/>
<path d="M531 381H606" stroke="black" stroke-width="12" stroke-linecap="round"/>
<path d="M531 456V381" stroke="black" stroke-width="12" stroke-linecap="round"/>
<path d="M531 456H606" stroke="black" stroke-width="12" stroke-linecap="round"/>
<path d="M606 606V456" stroke="black" stroke-width="12" stroke-linecap="round"/>
<path d="M531 606H606" stroke="black" stroke-width="12" stroke-linecap="round"/>
<path d="M531 606V531" stroke="black" stroke-width="12" stroke-linecap="round"/>
<path d="M456 531H531" stroke="black" stroke-width="12" stroke-linecap="round"/>
<path d="M456 531V381" stroke="black" stroke-width="12" stroke-linecap="round"/>
<path d="M306 381H456" stroke="black" stroke-width="12" stroke-linecap="round"/>
<path d="M306 531V381" stroke="black" stroke-width="12" stroke-linecap="round"/>
<path d="M156 158V233" stroke="black" stroke-width="12" stroke-linecap="round"/>
<path d="M156 233H6" stroke="black" stroke-width="12" stroke-linecap="round"/>
<path d="M6 383V233" stroke="black" stroke-width="12" stroke-linecap="round"/>
<path d="M81 383H6" stroke="black" stroke-width="12" stroke-linecap="round"/>
<path d="M81 383V308" stroke="black" stroke-width="12" stroke-linecap="round"/>
<path d="M156 308H81" stroke="black" stroke-width="12" stroke-linecap="round"/>
<path d="M156 383V308" stroke="black" stroke-width="12" stroke-linecap="round"/>
<path d="M231 383H156" stroke="black" stroke-width="12" stroke-linecap="round"/>
<path d="M231 458H156" stroke="black" stroke-width="12" stroke-linecap="round"/>
<path d="M156 608V458" stroke="black" stroke-width="12" stroke-linecap="round"/>
<path d="M231 608H156" stroke="black" stroke-width="12" stroke-linecap="round"/>
<path d="M231 608V533" stroke="black" stroke-width="12" stroke-linecap="round"/>
<path d="M231 531H306" stroke="black" stroke-width="12" stroke-linecap="round"/>
<path d="M231 458V383" stroke="black" stroke-width="12" stroke-linecap="round"/>
<path d="M531 231V306" stroke="black" stroke-width="12" stroke-linecap="round"/>
<path d="M531 231H456" stroke="black" stroke-width="12" stroke-linecap="round"/>
<path d="M531 308H456" stroke="black" stroke-width="12" stroke-linecap="round"/>
<path d="M456 231V306" stroke="black" stroke-width="12" stroke-linecap="round"/>
<path d="M306 234V309" stroke="black" stroke-width="12" stroke-linecap="round"/>
<path d="M306 234H231" stroke="black" stroke-width="12" stroke-linecap="round"/>
<path d="M306 311H231" stroke="black" stroke-width="12" stroke-linecap="round"/>
<path d="M231 234V309" stroke="black" stroke-width="12" stroke-linecap="round"/>
<path d="M156 233H6" stroke="black" stroke-width="12" stroke-linecap="round"/>
</svg>
